# xmcd CD database file
#
# Track frame offsets:
#	150
#	29555
#	46100
#	101200
#	125107
#	150482
#	178210
#
# Disc length: 2428 seconds
#
# Revision: 0
# Processed by: cddbd v1.5PL3 Copyright (c) Steve Scherf et al.
# Submitted via: CDex 1.60beta1
#
DISCID=5d097a07
DTITLE=Various Artist - Columbia Jazz Masterpieces Radio Show, Vol. 3
DYEAR=1900
DGENRE=Jazz
TTITLE0=Until I Met You/Duke Ellington and Count Basie
TTITLE1=Here's Love In Your Eye/Teddy Wilson
TTITLE2=Sing, Sing, Sing/Benny Goodman
TTITLE3=Take Five/Dave Brubeck
TTITLE4=Ain't Misbehavin/Louis Armstrong
TTITLE5=The End Of A Love Affair/Billie Holiday
TTITLE6=Conclusion
EXTD=
EXTT0=
EXTT1=
EXTT2=
EXTT3=
EXTT4=
EXTT5=
EXTT6=
PLAYORDER=
